<?xml version="1.0" encoding="UTF-8"?>
<!DOCTYPE svg PUBLIC "-//W3C//DTD SVG 1.1//EN" "http://www.w3.org/Graphics/SVG/1.1/DTD/svg11.dtd">
<!-- Creator: CorelDRAW -->
<svg xmlns="http://www.w3.org/2000/svg" xml:space="preserve" width="24px" height="24px" style="shape-rendering:geometricPrecision; text-rendering:geometricPrecision; image-rendering:optimizeQuality; fill-rule:evenodd; clip-rule:evenodd"
viewBox="0 0 4.06058 4.06058"
 xmlns:xlink="http://www.w3.org/1999/xlink">
 <defs>
  <style type="text/css">
   <![CDATA[
    .fil3 {fill:none}
    .fil0 {fill:black}
    .fil2 {fill:black;fill-rule:nonzero}
    .fil1 {fill:black;fill-rule:nonzero}
   ]]>
  </style>
   <clipPath id="id0">
    <path d="M-0 4.06058l4.06058 0 0 -4.06058 -4.06058 0 0 4.06058z"/>
   </clipPath>
 </defs>
 <g id="Ebene_x0020_1">
  <metadata id="CorelCorpID_0Corel-Layer"/>
  <g>
  </g>
  <g style="clip-path:url(#id0)">
   <g>
    <g id="_172312104">
     <path id="_171007240" class="fil0" d="M1.2567 1.68018l-1.06993 0c0,-0.356908 -0.00255478,-0.713257 -0.00255478,-1.0701 0.358346,0 0.716709,0 1.07504,0 0,0.35684 -0.00255478,0.713189 -0.00255478,1.0701zm-1.11778 -1.19164c-0.0405042,0 -0.0738856,0.0333644 -0.0738856,0.0738686l0 0 0 1.17021c0,0.0405212 0.0309957,0.0738856 0.0715169,0.0738856l0 0 0.00255478 0 1.16527 0 0.00255478 0 0 0c0.0405042,0 0.0715,-0.0333644 0.0715,-0.0738856l0 -1.17021 0 0c0,-0.0405042 -0.0333644,-0.0738686 -0.0738856,-0.0738686 -0.388529,0 -0.777076,0 -1.16562,0z"/>
     <path id="_171006664" class="fil1" d="M1.2567 1.73987l-1.06993 0 -0.0596905 0 0 -0.0596905c0,-0.244125 -0.000524491,-0.389646 -0.00104898,-0.535099 -0.000507572,-0.145453 -0.00103206,-0.292226 -0.00130277,-0.405195l0 0.992726c0,0.00460199 0.00147196,0.00849337 0.00385755,0.0109636 0.00192877,0.00197953 0.00472042,0.00323154 0.00796888,0.00323154l0.00255478 0 1.16527 0 0.00255478 0c0.00324846,0 0.00604011,-0.00125201 0.00795196,-0.00323154 0.00238559,-0.00247018 0.00385755,-0.00636157 0.00385755,-0.0109636l0 -0.992726c-0.000270705,0.112969 -0.000795196,0.259742 -0.00130277,0.405195 -0.000524491,0.145453 -0.00104898,0.290974 -0.00104898,0.535099l0 0.0596905 -0.0596905 0zm-1.01029 -0.119381l0.950648 0c0.00018611,-0.119093 0.000845953,-0.297268 0.00147196,-0.475409 0.000473734,-0.132933 0.000947468,-0.263599 0.00101514,-0.475307l-0.955623 0c6.76763e-005,0.211708 0.00054141,0.342374 0.00101514,0.475307 0.000626005,0.178141 0.00128585,0.356316 0.00147196,0.475409zm-0.114813 -1.0701l0.0526183 0 1.07504 0 0.0528213 0c-0.00219948,-0.00137044 -0.0047881,-0.00216564 -0.00752898,-0.00216564l-1.16562 0c-0.00262246,0 -0.0051434,0.000795196 -0.00732596,0.00216564zm-0.0869978 -0.0823113c0.0241773,-0.0241773 0.0576094,-0.0392353 0.0943238,-0.0392353l1.16562 0c0.0365452,0 0.0699265,0.0150749 0.0941208,0.0392353l0.000219948 0c0.0241773,0.0241773 0.0392353,0.0576094 0.0392353,0.0943238l0 1.17021c0,0.0362406 -0.0143135,0.069605 -0.0378987,0.0939685 -0.0236359,0.0244311 -0.0563912,0.0396075 -0.0932917,0.0396075l-0.00255478 0 -1.16527 0 -0.00255478 0c-0.0369343,0 -0.0696727,-0.0151933 -0.0933087,-0.0396075 -0.0235852,-0.0243635 -0.0378987,-0.0577279 -0.0378987,-0.0939685l0 -1.17021c0,-0.0367144 0.015058,-0.0701295 0.0392522,-0.0943238z"/>
     <path id="_171006952" class="fil2" d="M0.517182 1.47661c-0.0349548,0.0347687 -0.0914814,0.0346164 -0.12625,-0.000338381 -0.0347687,-0.0349548 -0.0346164,-0.0914814 0.000338381,-0.12625l0.537569 -0.536351c0.0349548,-0.0347687 0.0914814,-0.0346164 0.12625,0.000338381 0.0347687,0.0349548 0.0346164,0.0914814 -0.000338381,0.12625l-0.537569 0.536351z"/>
     <path id="_171006160" class="fil2" d="M0.39127 0.94026c-0.0349548,-0.0347687 -0.0351071,-0.0912953 -0.000338381,-0.12625 0.0347687,-0.0349548 0.0912953,-0.0351071 0.12625,-0.000338381l0.537569 0.536351c0.0349548,0.0347687 0.0351071,0.0912953 0.000338381,0.12625 -0.0347687,0.0349548 -0.0912953,0.0351071 -0.12625,0.000338381l-0.537569 -0.536351z"/>
     <path id="_171005872" class="fil0" d="M1.25281 3.4457l-1.06993 0c0,-0.356908 -0.00255478,-0.713257 -0.00255478,-1.07008 0.358346,0 0.716692,0 1.07504,0 0,0.356823 -0.00255478,0.713172 -0.00255478,1.07008zm-1.11778 -1.19164c-0.0405212,0 -0.0738856,0.0333644 -0.0738856,0.0738856l0 0 0 1.17021c0,0.0405212 0.0309957,0.0738686 0.0715169,0.0738686l0 0 0.00253786 0 1.16528 0 0.00253786 0 0 0c0.0405212,0 0.0715169,-0.0333475 0.0715169,-0.0738686l0 -1.17021 0 0c0,-0.0405212 -0.0333644,-0.0738856 -0.0738856,-0.0738856 -0.388529,0 -0.777093,0 -1.16562,0z"/>
     <path id="_171006472" class="fil1" d="M1.25281 3.50539l-1.06993 0 -0.0596905 0 0 -0.0596905c0,-0.244142 -0.00054141,-0.389663 -0.00104898,-0.535099 -0.000507572,-0.145436 -0.00103206,-0.292226 -0.00130277,-0.405195l0 0.992743c0,0.00458507 0.00145504,0.00847645 0.00385755,0.0109466 0.00192877,0.00197953 0.00472042,0.00323154 0.00796888,0.00323154l0.00253786 0 1.16528 0 0.00253786 0c0.00324846,0 0.00605703,-0.00125201 0.00796888,-0.00323154 0.00240251,-0.00247018 0.00385755,-0.00636157 0.00385755,-0.0109466l0 -0.992743c-0.000270705,0.112969 -0.000795196,0.259758 -0.00130277,0.405195 -0.000507572,0.145436 -0.00104898,0.290957 -0.00104898,0.535099l0 0.0596905 -0.0596905 0zm-1.01029 -0.119381l0.950648 0c0.00018611,-0.119093 0.000845953,-0.297268 0.00147196,-0.475409 0.000473734,-0.132933 0.000947468,-0.263582 0.00101514,-0.47529l-0.955623 0c6.76763e-005,0.211708 0.00054141,0.342357 0.00101514,0.47529 0.000626005,0.178141 0.00128585,0.356316 0.00147196,0.475409zm-0.11505 -1.07008l0.0528552 0 1.07504 0 0.0528552 0c-0.00219948,-0.00137044 -0.00480501,-0.00218256 -0.00756282,-0.00218256l-1.16562 0c-0.00274089,0 -0.00534642,0.000812115 -0.00756282,0.00218256zm-0.0865579 -0.0823282c0.0241943,-0.0241604 0.0575248,-0.0392353 0.0941208,-0.0392353l1.16562 0c0.036579,0 0.0699265,0.0150749 0.0941208,0.0392353l0.000219948 0.000219948c0.0241604,0.0241943 0.0392353,0.0575417 0.0392353,0.0941208l0 1.17021c0,0.0362406 -0.0142966,0.069622 -0.0378987,0.0939516 -0.0236359,0.0244311 -0.0563743,0.0396075 -0.0933087,0.0396075l-0.00253786 0 -1.16528 0 -0.00253786 0c-0.0369343,0 -0.0696727,-0.0151933 -0.0933087,-0.0396075 -0.0236021,-0.0243296 -0.0378987,-0.0577109 -0.0378987,-0.0939516l0 -1.17021c0,-0.036579 0.0150749,-0.0699265 0.0392353,-0.0941208l0.000219948 -0.000219948z"/>
     <path id="_171006376" class="fil0" d="M1.86029 0.905661c0.00930549,0 1.95691,0 1.95691,0 0.130091,0 0.241604,0.111514 0.241604,0.241604 0,0.130091 -0.111514,0.241604 -0.241604,0.241604l-1.92903 0c-0.130091,0.00932241 -0.25091,-0.0929364 -0.260181,-0.223027 -3.38381e-005,-0.139396 0.102208,-0.25091 0.232299,-0.260181z"/>
     <path id="_171006208" class="fil0" d="M1.86029 2.67118c0.00930549,0 1.95691,0 1.95691,0 0.130091,0 0.241604,0.111514 0.241604,0.241604 0,0.130091 -0.111514,0.241604 -0.241604,0.241604l-1.92903 0c-0.130091,0.00930549 -0.25091,-0.0929364 -0.260181,-0.223027 -3.38381e-005,-0.139396 0.102208,-0.25091 0.232299,-0.260181z"/>
    </g>
   </g>
  </g>
  <polygon class="fil3" points="-0,4.06058 4.06058,4.06058 4.06058,0 -0,0 "/>
 </g>
</svg>
